#N canvas 1127 296 695 561 10;
#X obj 54 262 gemwin;
#X msg 64 100 destroy;
#X msg 71 167 reset;
#X msg 77 235 perspec 0 64 0 64 1 20;
#X msg 69 130 frame 2;
#X msg 12 44 frame 2 \, perspec 0 64 0 64 1 20 \, create \, 1;
#X obj 449 273 rectangle 2 1.5;
#X obj 449 299 ocl_texreadback;
#X floatatom 552 228 5 0 0 0 - - -, f 5;
#X obj 449 204 pix_texture;
#X obj 449 402 rectangle 2 1.5;
#X obj 449 252 translateXYZ 0 2 0;
#X obj 449 381 translateXYZ 0 -4 0;
#X floatatom 538 359 5 0 0 0 - - -, f 5;
#X obj 449 354 pix_texture;
#X obj 449 41 pix_video;
#X obj 449 153 pix_buf;
#X obj 449 21 gemhead;
#X obj 449 -19 tgl 15 0 empty empty empty 17 7 0 10 -262144 -1 -1 0
1;
#X obj 449 1 == 0;
#X msg 15 77 create \, 1;
#X msg 484 1 dimen 1920 1980;
#X obj 449 61 pix_info, f 24;
#X floatatom 469 82 5 0 0 0 - - -, f 5;
#X msg 476 128 auto 1;
#X obj 476 106 loadbang;
#X obj 127 395 _fps;
#X msg 80 197 frame 60;
#X msg 509 150 auto 0;
#X floatatom 504 82 5 0 0 0 - - -, f 5;
#X connect 1 0 0 0;
#X connect 2 0 0 0;
#X connect 3 0 0 0;
#X connect 4 0 0 0;
#X connect 6 0 7 0;
#X connect 7 0 14 0;
#X connect 9 0 11 0;
#X connect 9 1 8 0;
#X connect 11 0 6 0;
#X connect 12 0 10 0;
#X connect 14 0 12 0;
#X connect 14 1 13 0;
#X connect 15 0 22 0;
#X connect 16 0 9 0;
#X connect 17 0 15 0;
#X connect 18 0 19 0;
#X connect 19 0 17 0;
#X connect 20 0 0 0;
#X connect 21 0 15 0;
#X connect 22 0 16 0;
#X connect 22 1 23 0;
#X connect 22 2 29 0;
#X connect 24 0 16 0;
#X connect 25 0 24 0;
#X connect 27 0 0 0;
#X connect 28 0 16 0;
